<?xml version="1.0" encoding="iso-8859-1"?>
<!-- Uploaded to: SVG Repo, www.svgrepo.com, Generator: SVG Repo Mixer Tools -->
<svg fill="#000000" height="800px" width="800px" version="1.1" id="Capa_1" xmlns="http://www.w3.org/2000/svg" xmlns:xlink="http://www.w3.org/1999/xlink" 
	 viewBox="0 0 290 290" xml:space="preserve">
<g>
	<path id="circle8927" d="M234.998,32.726c-2.761-0.034-5.028,2.177-5.062,4.938c-0.019,1.524,0.658,2.973,1.839,3.937
		C262.347,67.254,280,105.109,280,145.017c0,39.908-17.653,77.764-48.225,103.416c-2.121,1.768-2.407,4.922-0.639,7.043
		c1.768,2.121,4.922,2.407,7.043,0.639c0.009-0.007,0.017-0.014,0.026-0.022C271.036,228.545,290,187.875,290,145.017
		c0-42.858-18.964-83.528-51.795-111.076C237.313,33.171,236.177,32.74,234.998,32.726z M54.852,32.73
		c-1.126,0.048-2.203,0.474-3.057,1.211C18.964,61.489,0,102.159,0,145.017c0,42.858,18.964,83.528,51.795,111.076
		c2.109,1.783,5.264,1.518,7.047-0.592c1.783-2.109,1.518-5.264-0.591-7.047c-0.009-0.007-0.017-0.014-0.026-0.022
		C27.653,222.781,10,184.925,10,145.017c0-39.908,17.653-77.764,48.225-103.416c2.14-1.745,2.46-4.895,0.715-7.036
		C57.942,33.343,56.427,32.663,54.852,32.73z M188.928,71.027c-2.761-0.034-5.028,2.176-5.062,4.938
		c-0.019,1.525,0.659,2.976,1.842,3.939c19.25,16.152,30.363,39.985,30.363,65.113s-11.114,48.961-30.363,65.113
		c-2.144,1.741-2.471,4.89-0.73,7.034c1.741,2.144,4.89,2.471,7.034,0.73c0.042-0.034,0.083-0.069,0.124-0.104
		c21.509-18.048,33.936-44.695,33.936-72.773s-12.426-54.725-33.936-72.773C191.243,71.473,190.107,71.042,188.928,71.027z
		 M100.922,71.031c-1.126,0.048-2.204,0.476-3.057,1.213C76.356,90.292,63.93,116.939,63.93,145.017
		c0,28.078,12.426,54.725,33.936,72.773c2.087,1.809,5.245,1.584,7.054-0.502c1.809-2.087,1.584-5.245-0.502-7.054
		c-0.041-0.035-0.082-0.07-0.124-0.104c-19.25-16.152-30.363-39.985-30.363-65.113c0-25.129,11.114-48.961,30.363-65.113
		c2.141-1.744,2.463-4.894,0.719-7.035C104.015,71.645,102.499,70.963,100.922,71.031z M145,110.017c-19.271,0-35,15.729-35,35
		s15.729,35,35,35s35-15.729,35-35S164.271,110.017,145,110.017z M145,120.017c13.866,0,25,11.134,25,25s-11.134,25-25,25
		s-25-11.134-25-25S131.134,120.017,145,120.017z M145,127.517c-1.381-0.02-2.516,1.084-2.535,2.465
		c-0.02,1.381,1.084,2.516,2.465,2.535c0.024,0,0.047,0,0.071,0c6.933,0,12.5,5.567,12.5,12.5c-0.02,1.381,1.084,2.516,2.465,2.535
		c1.381,0.02,2.516-1.084,2.535-2.465c0-0.024,0-0.047,0-0.071C162.5,135.382,154.635,127.517,145,127.517z"/>
</g>
</svg>